<?xml version="1.0" encoding="UTF-8" standalone="no"?>
<svg
   xmlns:dc="http://purl.org/dc/elements/1.1/"
   xmlns:cc="http://creativecommons.org/ns#"
   xmlns:rdf="http://www.w3.org/1999/02/22-rdf-syntax-ns#"
   xmlns:svg="http://www.w3.org/2000/svg"
   xmlns="http://www.w3.org/2000/svg"
   version="1.1"
   id="svg2"
   viewBox="0 0 512.00002 511.99999"
   height="512"
   width="512">
  <defs
     id="defs4" />
  <metadata
     id="metadata7">
    <rdf:RDF>
      <cc:Work
         rdf:about="">
        <dc:format>image/svg+xml</dc:format>
        <dc:type
           rdf:resource="http://purl.org/dc/dcmitype/StillImage" />
        <dc:title></dc:title>
      </cc:Work>
    </rdf:RDF>
  </metadata>
  <g
     transform="translate(0,-540.36222)"
     id="layer1">
    <g
       id="g5166"
       style="fill:#241c1c;stroke:#e64a19;stroke-width:69.84609222;stroke-miterlimit:4;stroke-dasharray:none;stroke-opacity:1"
       transform="matrix(0.68833814,0,0,0.68833848,-19.565159,511.17237)">
      <rect
         ry="159.36876"
         y="77.329445"
         x="63.346996"
         height="673.974"
         width="673.974"
         id="rect5168"
         style="opacity:1;fill:#1d241c;fill-opacity:1;stroke:#e64a19;stroke-width:69.84609222;stroke-linecap:butt;stroke-linejoin:miter;stroke-miterlimit:4;stroke-dasharray:none;stroke-opacity:1" />
      <rect
         style="opacity:1;fill:#1d241c;fill-opacity:1;stroke:#e64a19;stroke-width:69.84609222;stroke-linecap:butt;stroke-linejoin:miter;stroke-miterlimit:4;stroke-dasharray:none;stroke-opacity:1"
         id="rect5170"
         width="673.974"
         height="673.974"
         x="63.346996"
         y="77.329445"
         ry="159.36876" />
    </g>
    <g
       transform="matrix(1.1030104,0,0,1.1030104,8.786119,-78.175759)"
       id="g5031">
      <path
         style="opacity:1;fill:#ffffff;fill-opacity:1;stroke:#ffffff;stroke-width:2.91973591;stroke-linecap:square;stroke-linejoin:bevel;stroke-miterlimit:4;stroke-dasharray:none;stroke-opacity:1"
         d="m 234.6065,619.26607 c -0.074,0.009 -0.14461,0.0492 -0.19422,0.11526 l -53.05938,70.52831 c -0.0992,0.13183 -0.0757,0.32076 0.0519,0.42339 l 21.48001,17.27942 c 0.12755,0.10263 0.30912,0.0794 0.40836,-0.0525 l 10.23396,-13.60352 64.16305,9.30679 8.74408,-60.57219 -27.00369,-4.14269 -3.81195,-2.49018 -20.79687,-16.7305 c -0.0638,-0.0513 -0.14119,-0.0712 -0.21522,-0.0616 z m 44.855,90.75786 c -0.16069,-0.0177 -0.3039,0.10086 -0.32119,0.26704 l -2.91358,27.97965 c -0.0171,0.16616 0.0976,0.31423 0.25825,0.33211 l 16.57107,1.84538 26.0954,61.32427 54.41793,-24.17024 -10.93586,-26.26437 0.15999,-4.01943 c 0,-0.0136 -0.006,-0.0254 -0.006,-0.0387 l 2.84845,-27.35769 c 0.0171,-0.16619 -0.0977,-0.3142 -0.25827,-0.33211 l -85.9166,-9.56584 z m 36.95513,100.07145 c -0.0379,-3.9e-4 -0.0762,0.007 -0.1136,0.0229 l -25.20587,10.61235 c -0.14966,0.0632 -0.22092,0.23785 -0.16003,0.3926 l 6.28519,15.9613 -39.84446,52.83233 46.37907,38.08758 17.05446,-22.24496 2.9776,-1.68791 c 0.0383,6.1e-4 0.0779,-0.007 0.11581,-0.0228 l 25.20481,-10.61232 c 0.14971,-0.0629 0.22108,-0.23886 0.16001,-0.39375 l -32.58697,-82.76013 c -0.0456,-0.11607 -0.15233,-0.18596 -0.26599,-0.18716 z m -86.79079,64.12714 c -0.074,0.008 -0.14411,0.0463 -0.19426,0.1118 l -10.34325,13.51452 -64.08577,-9.85799 -9.2319,60.49459 27.44738,4.45309 3.10119,2.27333 c 0.003,0.002 0.004,0.002 0.007,0.004 l 20.86862,17.07629 c 0.12676,0.10392 0.3091,0.0823 0.40944,-0.0486 l 53.62537,-70.06949 c 0.10046,-0.13089 0.0782,-0.31966 -0.0485,-0.4234 l -21.33985,-17.4643 c -0.0635,-0.0521 -0.1412,-0.0714 -0.21519,-0.0629 z"
         id="path5022" />
      <path
         id="path5020"
         d="m 240.80106,623.39577 c -0.074,0.009 -0.14461,0.0493 -0.19422,0.11526 l -53.05938,70.52832 c -0.0992,0.13182 -0.0757,0.32075 0.0519,0.42339 l 21.48002,17.27942 c 0.12755,0.10262 0.30912,0.0794 0.40836,-0.0525 l 10.23396,-13.60352 64.16305,9.30679 8.74408,-60.5722 -27.00369,-4.14268 -3.81195,-2.49018 -20.79687,-16.7305 c -0.0638,-0.0513 -0.1412,-0.0712 -0.21523,-0.0616 z m 44.855,90.75786 c -0.16069,-0.0177 -0.3039,0.10087 -0.3212,0.26704 l -2.91357,27.97965 c -0.0171,0.16617 0.0976,0.31423 0.25825,0.33211 l 16.57107,1.84539 26.09539,61.32426 54.41794,-24.17023 -10.93586,-26.26438 0.15999,-4.01943 c 0,-0.0136 -0.006,-0.0254 -0.006,-0.0387 l 2.84845,-27.35768 c 0.0171,-0.16619 -0.0977,-0.3142 -0.25827,-0.3321 l -85.91641,-9.56584 z m 36.95513,100.07145 c -0.0379,-3.8e-4 -0.0762,0.007 -0.1136,0.0229 l -25.20587,10.61236 c -0.14967,0.0632 -0.22093,0.23785 -0.16004,0.39259 l 6.2852,15.96131 -39.84446,52.83231 46.37907,38.08759 17.05446,-22.24496 2.9776,-1.68791 c 0.0383,6.1e-4 0.0779,-0.007 0.11581,-0.0228 l 25.2048,-10.61232 c 0.14972,-0.0629 0.22109,-0.23886 0.16002,-0.39375 l -32.58697,-82.76014 c -0.0456,-0.11606 -0.15234,-0.18595 -0.26599,-0.18716 z m -86.7908,64.12714 c -0.074,0.008 -0.1441,0.0464 -0.19425,0.1118 l -10.34325,13.51452 -64.08577,-9.85799 -9.2319,60.4946 27.44737,4.45308 3.1012,2.27334 c 0.003,0.002 0.004,0.002 0.007,0.004 l 20.86863,17.07629 c 0.12676,0.10392 0.30909,0.0823 0.40943,-0.0486 l 53.62538,-70.0695 c 0.10046,-0.13088 0.0782,-0.31966 -0.0485,-0.42339 l -21.33985,-17.4643 c -0.0635,-0.0521 -0.14121,-0.0714 -0.2152,-0.0629 z"
         style="opacity:0.13999999;fill:#ffffff;fill-opacity:1;stroke:#ffffff;stroke-width:2.91973591;stroke-linecap:square;stroke-linejoin:bevel;stroke-miterlimit:4;stroke-dasharray:none;stroke-opacity:1" />
    </g>
  </g>
</svg>
